<?xml version="1.0" standalone="no"?>
<!DOCTYPE svg PUBLIC "-//W3C//DTD SVG 20010904//EN"
 "http://www.w3.org/TR/2001/REC-SVG-20010904/DTD/svg10.dtd">
<svg version="1.0" xmlns="http://www.w3.org/2000/svg"
 width="356.000000pt" height="356.000000pt" viewBox="0 0 356.000000 356.000000"
 preserveAspectRatio="xMidYMid meet">
<metadata>
Created by potrace 1.14, written by Peter Selinger 2001-2017
</metadata>
<g transform="translate(0.000000,356.000000) scale(0.100000,-0.100000)"
fill="#000000" stroke="none">
<path d="M39 3553 c0 -13 -1 -485 0 -545 l1 -57 76 5 75 4 -28 -50 -28 -50
-52 0 -53 0 0 -1430 0 -1430 1400 0 1400 0 0 56 0 56 33 -22 c17 -12 40 -24
50 -27 14 -4 17 -12 12 -34 l-7 -29 306 0 306 0 -1 1780 -2 1780 -1744 0
c-958 0 -1743 -3 -1744 -7z m3070 -100 c-12 -60 -5 -67 10 -9 16 63 31 67 32
9 1 -26 4 -38 6 -25 l4 22 28 -19 c17 -12 49 -21 82 -24 l54 -3 -57 -2 c-56
-2 -75 -13 -43 -26 10 -4 15 -20 15 -52 0 -44 -1 -46 -25 -42 -19 4 -25 1 -25
-13 0 -14 7 -19 25 -19 23 0 25 -3 25 -50 0 -27 -4 -50 -10 -50 -5 0 -7 -12
-4 -27 3 -16 6 -35 7 -43 2 -8 6 -20 9 -26 4 -6 -6 -10 -26 -11 -35 -1 -35 -1
-38 89 -1 23 -3 25 -15 12 -8 -8 -27 -14 -43 -14 -24 0 -29 -5 -34 -35 -4 -20
-5 -39 -2 -44 3 -4 -12 -8 -34 -8 -28 0 -38 3 -31 11 8 10 13 34 25 116 5 33
5 33 -3 5 -8 -27 -9 -24 -10 23 -1 46 1 52 19 52 27 0 26 28 -1 32 -18 2 -22
11 -23 47 -2 31 2 45 13 50 9 3 -15 9 -54 12 -78 6 -86 4 -61 -14 14 -10 16
-28 14 -121 -2 -79 -7 -110 -16 -112 -7 -1 -8 0 -2 3 12 6 14 120 2 125 -5 2
-12 33 -15 71 -5 55 -4 67 8 67 8 0 15 5 15 11 0 5 5 7 10 4 6 -3 10 1 10 9 0
9 5 16 11 16 5 0 7 4 4 10 -3 5 0 7 8 4 8 -3 18 -1 22 5 3 6 26 11 51 11 24 0
44 5 44 10 0 6 6 10 14 10 11 0 12 -10 5 -47z m-2678 -26 c4 -5 31 -6 66 -2
50 5 63 4 83 -13 21 -17 26 -17 51 -5 15 7 29 20 32 28 8 19 195 15 207 -5 5
-8 22 -13 42 -11 220 12 258 12 252 -3 -3 -8 3 -19 14 -25 17 -9 26 -5 53 20
32 29 37 31 141 36 105 5 108 4 108 -16 0 -13 10 -26 25 -33 26 -12 41 -41 30
-58 -3 -5 -8 -18 -10 -27 -2 -10 -11 -38 -19 -62 -21 -58 -21 -61 14 -61 32 0
70 -30 70 -55 0 -22 13 -18 39 9 30 32 74 52 139 64 60 11 61 10 36 -74 -22
-77 -56 -114 -103 -114 l-37 0 -13 -62 c-23 -106 -7 -98 -211 -98 -99 0 -180
4 -180 8 0 5 8 16 18 25 14 13 37 15 117 13 55 -2 120 -8 144 -13 28 -7 54 -8
69 -2 36 14 17 28 -29 22 -30 -4 -44 -2 -50 9 -6 11 -38 14 -173 13 -155 -1
-166 0 -160 17 5 16 -2 18 -65 18 -69 0 -107 12 -124 38 -13 20 -47 14 -56
-10 -18 -46 -88 -88 -147 -88 -17 0 -21 4 -17 20 5 18 0 20 -52 20 -49 0 -56
2 -51 18 19 64 19 74 0 70 -13 -2 -28 -27 -49 -83 -17 -44 -35 -87 -40 -96
-18 -28 -76 -49 -132 -48 -29 1 -53 3 -53 4 0 1 7 22 15 45 20 58 19 70 -8 70
-31 0 -58 21 -60 47 0 12 -6 21 -12 20 -13 -3 -9 25 18 101 16 44 27 62 39 62
10 0 18 5 18 11 0 5 -5 7 -12 3 -8 -5 -9 2 -5 24 9 46 -9 49 -32 5 -36 -72
-56 -87 -124 -93 -90 -9 -97 -6 -85 38 5 21 17 44 27 52 10 9 25 37 34 63 16
47 16 47 -6 47 -42 0 -45 12 -20 77 l24 61 102 -5 c56 -3 105 -10 108 -16z
m2909 -61 c0 -3 -4 -8 -10 -11 -5 -3 -10 -1 -10 4 0 6 5 11 10 11 6 0 10 -2
10 -4z m-320 -244 c0 -5 -15 -9 -32 -9 -27 -1 -29 1 -13 7 27 11 45 12 45 2z
m289 4 c-11 -9 -69 -14 -69 -6 0 6 17 10 37 10 20 0 34 -2 32 -4z m-899 -172
c0 -3 -12 -25 -26 -50 l-26 -44 -175 0 -175 0 23 38 c13 20 27 44 32 52 7 13
36 15 178 12 93 -2 169 -5 169 -8z m766 -21 c-7 -7 -26 7 -26 19 0 6 6 6 15
-2 9 -7 13 -15 11 -17z m77 8 c-4 -3 -11 -10 -15 -15 -5 -5 -8 0 -8 12 0 15 4
20 16 15 9 -3 12 -9 7 -12z m44 -13 c-3 -7 -5 -2 -5 12 0 14 2 19 5 13 2 -7 2
-19 0 -25z m46 12 c3 -11 1 -20 -4 -20 -5 0 -9 9 -9 20 0 11 2 20 4 20 2 0 6
-9 9 -20z m-443 -11 c0 -6 -4 -7 -10 -4 -5 3 -10 11 -10 16 0 6 5 7 10 4 6 -3
10 -11 10 -16z m50 11 c0 -5 -2 -10 -4 -10 -3 0 -8 5 -11 10 -3 6 -1 10 4 10
6 0 11 -4 11 -10z m60 -11 c0 -6 -4 -7 -10 -4 -5 3 -10 11 -10 16 0 6 5 7 10
4 6 -3 10 -11 10 -16z m102 12 c8 11 9 11 6 1 -4 -16 -22 -18 -24 -2 -2 7 -1
6 3 -1 4 -8 8 -7 15 2z m-2355 -37 c27 -9 63 -14 85 -11 21 3 38 4 38 2 0 -2
-3 -10 -6 -19 -5 -13 -26 -16 -125 -16 -65 0 -119 3 -119 8 0 4 7 18 16 30 18
26 46 28 111 6z m2139 -109 c4 -8 4 -22 1 -29 -5 -12 -13 -11 -46 7 -23 12
-41 25 -41 30 0 14 80 7 86 -8z m-2153 -22 c-9 -3 -13 -29 -13 -80 0 -67 -2
-75 -18 -71 -10 3 -23 -1 -30 -9 -18 -19 -43 -17 -35 4 5 13 2 15 -11 10 -10
-4 -26 -7 -37 -7 -15 0 -19 -7 -19 -35 0 -27 -4 -35 -17 -35 -15 0 -18 11 -21
73 -3 90 4 123 22 108 21 -17 66 -10 66 11 0 10 5 18 10 18 6 0 10 -9 10 -20
0 -21 15 -27 25 -10 5 8 12 7 22 -2 14 -11 15 -10 9 9 -5 16 -1 25 15 37 13 9
25 13 28 9 3 -3 0 -8 -6 -10z m783 8 c14 -13 64 -23 64 -12 0 19 35 16 47 -4
11 -17 12 -18 13 -2 0 9 5 17 10 17 15 0 12 -57 -2 -63 -7 -3 4 -6 25 -6 41
-1 53 -21 12 -21 -21 0 -25 -5 -27 -32 0 -18 -3 -46 -5 -63 -2 -16 -6 -65 -9
-107 -3 -48 -11 -81 -20 -89 -12 -10 -14 -2 -14 48 0 47 -4 64 -20 78 -26 23
-29 19 -37 -44 -7 -60 -23 -68 -23 -11 0 44 -20 120 -32 120 -5 0 -8 45 -8
100 0 96 4 111 26 91z m228 -70 c13 -11 66 6 66 21 0 3 18 9 40 13 22 4 42 11
46 16 3 5 32 9 65 9 l59 0 0 -54 c0 -30 -4 -58 -10 -61 -5 -3 -10 -33 -10 -66
0 -33 -4 -59 -10 -59 -5 0 -10 10 -10 21 0 12 -7 27 -15 33 -9 6 -17 31 -19
59 -2 26 -7 51 -10 54 -3 4 -6 17 -6 30 0 25 -14 31 -26 11 -8 -12 -14 -81
-21 -223 -2 -44 -6 -91 -10 -105 l-6 -25 -7 25 c-5 14 -9 50 -10 80 -2 64 -11
102 -25 106 -17 6 -45 -65 -45 -115 0 -26 -7 -63 -17 -81 l-16 -34 -10 25
c-15 36 -27 254 -17 291 7 21 6 36 -1 45 -7 8 -8 23 -3 40 8 28 8 27 12 -9 2
-20 9 -41 16 -47z m782 -68 c-3 -3 -17 -3 -31 1 -23 6 -25 10 -25 67 0 50 3
60 15 55 8 -3 21 1 27 8 11 11 14 1 16 -56 2 -39 1 -73 -2 -75z m-1664 114
c21 -3 40 -1 43 4 8 13 52 11 92 -3 28 -10 36 -10 43 2 5 8 13 11 17 6 4 -4
-1 -14 -11 -22 -11 -8 -16 -14 -12 -14 5 0 4 -6 -2 -12 -6 -7 -12 -73 -14
-145 -5 -132 -11 -161 -28 -133 -5 8 -10 12 -12 10 -18 -28 -28 -54 -29 -72 0
-22 -1 -22 -9 -3 -5 11 -11 32 -14 48 -4 15 -13 27 -21 27 -10 0 -15 10 -15
30 0 35 -19 47 -49 30 -15 -8 -21 -21 -21 -45 0 -19 -5 -35 -10 -35 -7 0 -10
58 -9 164 1 90 -2 169 -6 176 -6 9 -3 10 11 2 11 -5 36 -12 56 -15z m359 11
c17 -10 23 -10 26 0 7 19 53 15 54 -5 3 -41 5 -46 17 -50 6 -3 12 1 12 8 0 26
33 49 70 49 l36 0 -3 -112 c-2 -62 -8 -114 -13 -116 -6 -2 -10 -30 -10 -63 0
-101 -17 -65 -26 54 -4 61 -7 118 -5 125 1 6 -3 12 -9 12 -5 0 -10 9 -10 20 0
11 -4 20 -10 20 -5 0 -10 -7 -10 -15 0 -8 -5 -15 -11 -15 -24 0 -38 -30 -41
-86 -3 -56 -5 -59 -30 -62 -15 -2 -28 -10 -30 -20 -2 -9 -8 35 -12 98 -4 63
-9 123 -9 133 -1 10 -9 22 -17 27 -23 15 6 12 31 -2z m1915 -25 c-10 -10 -19
5 -10 18 6 11 8 11 12 0 2 -7 1 -15 -2 -18z m142 16 c42 0 51 -3 36 -9 -17 -7
-135 -7 -154 0 -12 4 36 18 48 14 8 -2 39 -4 70 -5z m172 -4 c0 -11 -12 -15
-49 -15 -62 0 -76 17 -19 23 24 2 49 4 56 5 6 1 12 -5 12 -13z m-2320 -66 c-5
-35 -10 -113 -10 -173 0 -158 -17 -121 -26 55 -5 100 -3 152 4 165 11 18 11
18 12 -1 1 -18 2 -17 11 4 16 40 20 17 9 -50z m1001 -19 c5 0 9 4 9 9 0 12
100 30 133 24 20 -4 27 -1 27 11 0 24 59 46 88 33 17 -8 25 -8 31 2 6 9 10 6
14 -11 10 -37 8 -146 -3 -153 -5 -3 -10 -15 -10 -27 0 -16 -5 -19 -22 -14 -17
4 -28 -1 -40 -16 -13 -18 -19 -20 -32 -9 -8 7 -20 10 -26 6 -6 -4 -10 10 -10
39 0 46 0 46 -34 46 -34 0 -35 -1 -38 -47 -3 -45 -4 -48 -30 -46 -27 2 -28 0
-28 -43 0 -30 -4 -44 -14 -44 -16 0 -24 60 -30 215 -2 61 -2 91 1 68 2 -24 8
-43 14 -43z m-374 58 c-3 -8 -6 -5 -6 6 -1 11 2 17 5 13 3 -3 4 -12 1 -19z
m1323 -18 c0 -11 -2 -20 -4 -20 -2 0 -6 9 -9 20 -3 11 -1 20 4 20 5 0 9 -9 9
-20z m60 -1 c0 -5 -4 -9 -10 -9 -5 0 -10 7 -10 16 0 8 5 12 10 9 6 -3 10 -10
10 -16z m135 1 c-3 -5 -24 -10 -45 -10 -21 0 -42 5 -45 10 -4 6 13 10 45 10
32 0 49 -4 45 -10z m125 0 c0 -5 -25 -10 -55 -10 -30 0 -55 5 -55 10 0 6 25
10 55 10 30 0 55 -4 55 -10z m50 0 c0 -5 -9 -10 -21 -10 -11 0 -17 5 -14 10 3
6 13 10 21 10 8 0 14 -4 14 -10z m-895 -90 c-3 -5 -11 -10 -16 -10 -6 0 -7 5
-4 10 3 6 11 10 16 10 6 0 7 -4 4 -10z m-2 -39 c4 10 6 10 6 -2 1 -9 -6 -22
-14 -29 -13 -11 -15 -8 -15 16 0 20 3 25 9 15 7 -11 9 -11 14 0z m17 -78 c-1
-24 -2 -26 -11 -10 -5 9 -7 22 -4 27 10 17 15 11 15 -17z m-2027 -63 c5 -54 5
-55 -8 -20 -10 27 -14 30 -14 13 -2 -39 -21 -36 -21 3 0 23 6 41 17 50 10 7
18 12 19 11 1 -1 4 -27 7 -57z m1975 -4 c6 -4 12 -22 12 -41 0 -27 -5 -34 -26
-39 -14 -4 -32 -2 -40 4 -10 9 -31 4 -91 -23 -173 -76 -248 -112 -251 -119 -2
-5 -9 -8 -16 -8 -17 0 -66 -24 -66 -32 0 -4 14 -3 32 2 21 7 36 6 45 -1 7 -6
21 -9 32 -6 14 3 17 0 13 -15 -6 -23 23 -47 56 -48 29 0 31 -35 2 -37 -11 -1
-20 2 -20 8 0 5 -8 9 -18 9 -10 0 -28 9 -40 20 -17 16 -26 18 -40 11 -13 -7
-22 -7 -29 0 -8 8 -13 7 -17 0 -9 -14 -46 -14 -46 -1 0 6 -8 10 -18 10 -9 0
-22 10 -27 22 -10 21 -34 30 -87 32 -16 1 -28 4 -28 7 0 13 66 19 98 10 38
-11 55 -6 222 67 202 88 271 122 277 140 14 38 39 48 71 28z m132 -16 c0 -11
-4 -20 -10 -20 -5 0 -10 9 -10 20 0 11 5 20 10 20 6 0 10 -9 10 -20z m240 -88
c0 -20 3 -54 6 -74 6 -36 5 -38 -20 -38 -24 0 -26 -3 -26 -48 0 -53 -13 -77
-47 -85 -16 -3 -27 2 -38 19 -22 34 -62 32 -71 -2 -4 -16 -1 -31 8 -40 12 -12
14 -10 13 13 0 41 30 42 44 2 6 -18 10 -33 9 -34 -14 -8 -98 -35 -111 -35 -9
0 -17 -5 -17 -10 0 -21 56 -32 140 -27 81 5 84 4 55 -10 -42 -22 -42 -23 -21
-39 11 -8 39 -14 63 -14 l43 0 -21 -21 c-13 -13 -25 -17 -32 -12 -24 18 -89
34 -122 32 -19 -2 -41 3 -52 12 -30 26 -74 51 -80 46 -6 -6 12 -40 30 -59 7
-7 23 -31 37 -53 l23 -40 -26 24 c-37 33 -46 19 -13 -20 26 -30 29 -56 4 -31
-20 20 -29 13 -14 -10 8 -13 16 -26 16 -30 9 -44 16 -53 43 -49 4 0 7 -3 7 -9
0 -5 6 -10 13 -10 7 0 22 -7 33 -15 18 -15 18 -15 -6 -11 -40 8 -204 48 -219
54 -10 4 -13 1 -8 -11 3 -9 2 -17 -3 -17 -6 0 -10 8 -10 18 0 10 -6 19 -12 19
-7 0 -47 10 -88 22 -41 11 -90 20 -110 20 -23 -1 -27 -3 -12 -6 24 -5 30 -28
10 -36 -7 -3 1 -6 17 -7 36 -1 75 -31 75 -57 0 -15 2 -15 10 -3 5 8 11 12 12
10 2 -3 16 -20 32 -39 21 -26 24 -36 14 -42 -9 -6 -10 -9 -1 -9 12 0 83 -65
83 -75 0 -3 -20 -5 -44 -5 -28 0 -48 -6 -57 -16 -7 -9 -23 -20 -35 -24 -19 -8
-22 -14 -18 -52 10 -84 12 -89 40 -82 31 8 74 -13 74 -36 0 -9 -9 -25 -20 -35
-11 -10 -20 -22 -20 -27 0 -5 9 -6 20 -3 27 9 25 -3 -5 -27 -14 -11 -25 -24
-25 -29 0 -16 54 3 72 27 10 12 29 25 43 28 17 4 25 13 25 29 1 20 2 21 14 5
7 -10 19 -18 26 -18 10 0 11 -20 6 -87 -11 -149 -28 -287 -37 -311 -5 -13 -9
-63 -9 -112 0 -79 -2 -90 -17 -90 -14 0 -15 -2 -4 -9 9 -6 10 -11 2 -15 -6 -4
-11 -2 -11 4 0 7 -7 10 -15 6 -8 -3 -15 -1 -15 4 0 6 5 10 10 10 6 0 10 60 10
160 0 100 4 160 10 160 15 0 13 187 -2 193 -8 4 -4 8 10 12 12 4 22 15 22 26
0 26 -15 24 -39 -7 -12 -15 -21 -24 -21 -21 0 9 -71 -23 -89 -40 -10 -10 -16
-12 -19 -4 -2 6 -11 11 -20 12 -11 0 -12 2 -4 6 21 8 13 20 -16 20 -15 0 -41
8 -57 19 -28 18 -29 19 -7 22 13 2 33 -3 45 -11 14 -9 30 -11 44 -6 24 9 28
14 37 51 6 28 6 28 -44 28 -50 0 -67 13 -30 23 24 6 26 30 3 48 -13 11 -17 11
-20 2 -5 -15 -49 -17 -58 -3 -3 6 -25 10 -48 10 -40 0 -41 0 -19 16 18 12 22
25 22 65 0 27 3 48 8 46 4 -1 8 1 10 6 1 4 -1 7 -5 6 -3 0 -10 6 -15 15 -5 9
-18 16 -30 16 -16 0 -19 -5 -15 -22 4 -12 1 -28 -5 -35 -7 -9 -7 -13 1 -13 6
0 11 -7 11 -16 0 -8 -4 -12 -10 -9 -6 4 -10 -10 -10 -34 0 -33 -5 -43 -26 -54
-20 -10 -28 -23 -30 -48 -10 -111 -34 -212 -48 -199 -2 3 -11 60 -18 126 -12
109 -12 123 2 131 13 9 9 15 -22 43 l-37 32 42 22 c47 25 66 54 22 34 -21 -9
-28 -9 -34 1 -10 16 -17 16 -44 -2 -20 -13 -25 -13 -47 5 l-24 20 36 -7 c39
-7 59 0 148 59 30 20 60 36 67 36 7 0 13 4 13 9 0 5 12 15 28 23 87 45 111 68
73 68 -11 0 -23 5 -26 10 -7 12 -55 14 -55 2 0 -5 11 -12 25 -18 24 -9 22 -11
-57 -58 -111 -67 -216 -121 -200 -105 16 17 15 29 -2 29 -8 0 -18 5 -22 11 -4
7 0 9 13 5 22 -7 103 25 123 49 9 11 10 18 1 28 -6 8 -8 17 -4 21 4 4 -26 6
-67 5 -41 -1 -92 2 -114 6 -21 4 -41 4 -45 -1 -3 -5 -18 -15 -33 -21 -45 -20
-35 -45 29 -75 97 -46 37 -46 -105 0 -70 23 -153 50 -184 59 -45 14 -56 22
-52 35 7 23 -10 30 -51 22 -37 -7 -50 -34 -16 -34 11 0 21 -3 23 -8 3 -8 115
-46 165 -57 18 -4 36 -11 40 -17 4 -8 0 -9 -13 -3 -10 4 -37 11 -60 16 -42 8
-115 33 -147 50 -9 5 -39 12 -64 15 -26 3 -50 7 -54 10 -15 9 -41 -38 -70
-127 -17 -52 -39 -113 -50 -136 -10 -24 -19 -50 -19 -58 0 -8 -4 -15 -10 -15
-5 0 -10 -13 -10 -30 0 -16 -4 -30 -10 -30 -5 0 -10 -18 -10 -39 0 -22 -5 -41
-11 -43 -7 -2 -12 -23 -12 -45 0 -27 -5 -44 -14 -47 -8 -3 -11 -10 -8 -16 3
-5 -1 -10 -9 -10 -12 0 -16 10 -16 39 0 46 -27 78 -37 43 -3 -12 -9 -22 -14
-22 -4 0 -3 14 2 30 10 28 29 41 29 20 0 -5 8 -10 18 -10 14 0 38 35 46 70 1
3 10 23 20 44 10 21 21 56 23 77 3 22 10 39 14 39 5 0 9 9 9 21 0 15 -5 19
-15 15 -8 -3 -15 -1 -15 4 0 5 9 11 19 15 27 8 38 25 46 69 7 36 6 38 -14 31
-31 -9 -26 2 9 20 17 9 36 31 45 53 17 39 60 81 85 82 8 0 34 8 58 18 38 15
42 20 40 47 -2 19 -11 34 -26 41 -16 8 -19 13 -10 17 15 5 40 75 32 88 -9 15
-100 -23 -407 -170 -82 -39 -153 -71 -158 -71 -5 0 -9 -4 -9 -10 0 -5 -11 -10
-24 -10 -14 0 -28 -4 -31 -10 -3 -5 -15 -10 -26 -10 -10 0 -19 -4 -19 -10 0
-5 -9 -10 -20 -10 -11 0 -20 -4 -20 -10 0 -5 -6 -10 -14 -10 -12 0 -57 -19
-221 -96 l-60 -27 40 -8 c41 -8 141 7 151 23 3 4 13 8 23 8 19 0 71 49 71 68
0 7 11 12 25 12 23 0 18 -7 -45 -67 -38 -37 -70 -72 -70 -78 0 -7 9 -20 20
-30 25 -22 25 -32 2 -30 -34 2 -43 15 -38 56 l5 40 -40 -33 c-60 -49 -71 -55
-106 -62 -42 -7 -42 4 2 42 19 17 30 34 25 37 -20 12 -50 -7 -80 -50 l-30 -44
25 -25 c26 -26 32 -46 16 -46 -6 0 -13 5 -16 10 -3 6 -19 17 -35 25 l-30 15
29 -80 c15 -44 27 -80 25 -80 -2 0 -24 12 -49 26 -26 14 -53 23 -60 20 -8 -3
-25 4 -40 16 -14 11 -29 17 -32 14 -11 -10 22 -128 108 -390 27 -83 31 -113
10 -90 -8 9 -57 158 -100 304 -12 41 -30 104 -41 140 -11 36 -27 90 -36 120
-9 30 -24 80 -34 110 -31 96 -32 108 -10 115 11 4 37 6 58 4 20 -1 44 1 52 4
20 9 70 2 78 -10 9 -13 51 -23 57 -14 2 5 -5 18 -16 29 -11 12 -15 22 -10 22
15 0 51 -50 51 -71 0 -11 2 -19 5 -19 5 0 137 62 145 67 2 2 -2 8 -10 13 -8 5
-12 12 -8 15 3 3 12 0 19 -8 19 -18 37 -12 239 85 47 23 87 42 90 43 33 10 90
39 90 46 0 5 14 9 30 9 17 0 30 5 30 10 0 6 9 10 20 10 11 0 20 5 20 10 0 6
10 11 23 11 19 1 19 2 3 6 -15 4 -16 7 -5 13 7 5 20 5 28 1 11 -6 48 6 109 32
83 36 92 43 76 54 -16 12 -15 13 12 14 16 1 35 1 42 0 7 -1 15 5 18 13 3 8 12
17 20 20 9 3 12 1 9 -4 -4 -6 13 -3 37 6 56 23 61 28 16 20 -32 -6 -36 -4 -32
12 4 15 -5 20 -58 32 -35 8 -83 14 -108 13 -26 0 -37 2 -27 6 14 5 4 12 -40
25 -32 10 -64 21 -70 23 -7 3 -17 -6 -22 -18 l-10 -24 0 27 c-1 23 -7 27 -53
38 -28 7 -59 14 -67 15 -9 1 -23 4 -31 7 -8 4 -27 9 -42 12 -27 6 -28 5 -28
-38 0 -42 -2 -45 -47 -68 -27 -14 -60 -28 -75 -32 -25 -6 -27 -4 -25 24 1 16
6 30 10 30 5 0 6 4 3 9 -3 4 1 17 9 27 26 34 18 41 -37 38 l-53 -4 55 13 c46
10 56 10 59 -2 3 -12 4 -12 12 0 6 11 11 11 21 1 16 -16 28 -15 28 1 0 16 -77
49 -85 37 -3 -5 -11 -7 -19 -4 -7 3 -24 1 -37 -5 -19 -7 -31 -5 -48 8 -39 29
-16 66 47 77 7 1 28 -10 45 -26 23 -19 59 -34 122 -50 50 -12 97 -24 105 -27
8 -4 44 -14 80 -24 63 -17 66 -17 85 0 28 26 65 44 98 47 39 5 25 -13 -21 -26
-40 -11 -79 -36 -70 -45 3 -3 21 -8 40 -11 29 -5 40 -1 61 20 14 14 38 28 54
31 15 4 36 11 46 16 13 7 19 5 24 -8 4 -10 16 -30 27 -45 19 -26 19 -28 2 -47
-17 -19 -17 -20 19 -30 30 -8 42 -6 70 9 28 16 38 17 59 7 14 -7 26 -20 26
-29 0 -22 0 -22 36 -4 116 58 259 115 268 106 6 -6 1 -13 -15 -19 -13 -5 -64
-28 -114 -51 -49 -23 -101 -46 -115 -52 l-25 -10 30 -12 c34 -15 308 -86 329
-86 8 0 18 19 25 44 11 44 49 86 77 86 18 0 18 -5 -2 -34 -10 -17 -12 -26 -4
-31 6 -4 8 -16 4 -28 -9 -30 -11 -32 -29 -17 -8 7 -15 9 -15 5 0 -4 7 -13 17
-20 11 -8 14 -18 8 -31 -5 -10 -9 -23 -9 -29 -1 -5 -13 -11 -28 -13 -19 -2
-28 2 -33 17 -7 22 -13 24 -190 71 -66 18 -142 39 -168 47 -44 14 -50 14 -68
-3 -10 -9 -19 -28 -19 -41 0 -22 -1 -23 -16 -9 -28 28 -39 17 -12 -11 22 -23
25 -32 16 -47 -8 -15 -7 -22 6 -31 9 -7 16 -17 16 -24 0 -19 28 -24 44 -8 14
13 14 16 1 21 -9 3 -15 0 -15 -9 0 -8 -4 -15 -9 -15 -12 0 -20 49 -10 56 5 3
9 1 9 -4 0 -19 105 -24 145 -8 42 18 145 22 145 6 0 -14 84 -12 99 3 11 10 12
8 6 -10 -6 -22 -4 -23 44 -23 28 0 51 4 51 10 0 5 5 9 12 7 6 -1 12 9 12 23 1
22 5 25 33 24 31 -2 58 26 34 34 -6 2 -11 9 -11 15 1 7 9 3 18 -9 13 -15 29
-21 60 -20 23 0 42 3 42 7 0 3 6 6 13 7 21 1 84 27 101 41 14 11 16 11 16 -2
0 -8 -6 -18 -12 -21 -7 -3 1 -4 17 -1 17 3 37 1 45 -5 11 -7 6 -10 -22 -10
-20 0 -39 -6 -42 -12 -5 -10 -7 -10 -12 0 -11 24 -33 11 -44 -27 -7 -29 -17
-41 -33 -44 -16 -3 -13 -5 11 -6 17 0 32 -5 32 -10 0 -12 123 -43 143 -35 10
3 17 1 17 -5 0 -10 64 -31 138 -46 l33 -7 -7 39 c-3 21 -10 43 -14 48 -11 14
-31 113 -30 148 0 16 -6 30 -15 34 -9 3 -23 23 -32 44 -8 22 -19 39 -24 39 -4
0 -3 14 2 30 11 30 41 41 54 20 3 -5 11 -10 17 -10 6 0 3 9 -6 19 -20 22 -12
45 14 38 9 -2 34 8 54 24 21 15 60 33 87 40 l49 13 0 98 0 99 45 -31 c40 -27
45 -35 45 -68z m-220 28 c0 -5 -5 -10 -11 -10 -5 0 -7 5 -4 10 3 6 8 10 11 10
2 0 4 -4 4 -10z m-2515 -49 c-3 -5 10 -14 29 -21 48 -15 76 -43 76 -74 0 -38
20 -32 21 7 2 31 2 31 6 4 3 -16 0 -34 -6 -41 -11 -14 -11 -56 1 -56 4 0 8 -6
8 -14 0 -8 4 -16 10 -18 16 -5 -21 -75 -47 -87 -13 -6 -38 -11 -55 -11 -17 0
-46 -5 -64 -12 -26 -9 -38 -9 -58 1 -32 17 -38 44 -30 131 7 68 26 110 53 110
6 0 11 9 11 20 0 11 5 20 10 20 6 0 10 8 10 18 0 10 3 22 7 25 10 10 25 8 18
-2z m2400 -13 c39 -18 30 -88 -12 -88 -20 0 -33 35 -27 69 7 36 5 35 39 19z
m-1895 -16 c0 -4 -12 -13 -27 -20 -16 -7 -45 -22 -67 -33 -21 -11 -40 -18 -43
-15 -3 3 10 12 28 21 19 9 50 25 69 36 40 22 40 22 40 11z m130 -12 c-8 -5
-24 -10 -35 -10 -17 0 -17 2 -5 10 8 5 24 10 35 10 17 0 17 -2 5 -10z m-290
-60 c-8 -5 -24 -9 -35 -9 l-20 0 20 9 c11 5 27 9 35 9 13 1 13 0 0 -9z m730
-6 c0 -8 -4 -12 -10 -9 -5 3 -10 10 -10 16 0 5 5 9 10 9 6 0 10 -7 10 -16z
m160 -1 c0 -15 -2 -16 -10 -3 -6 10 -10 11 -10 3 0 -7 -9 -13 -20 -13 -11 0
-20 5 -20 11 0 6 7 9 15 6 8 -4 17 -2 20 3 10 16 25 11 25 -7z m-385 -13 c-10
-11 -22 -20 -28 -20 -5 0 1 9 14 20 31 25 37 25 14 0z m535 0 c11 -11 20 -24
20 -30 0 -15 -48 -12 -52 3 -3 6 -5 -2 -5 -20 0 -39 -18 -63 -47 -62 -11 0
-15 3 -8 6 6 2 12 14 12 26 0 20 0 20 -15 1 -9 -12 -14 -14 -15 -6 0 28 47 95
62 86 4 -3 8 0 8 5 0 17 18 13 40 -9z m-237 -7 c-7 -2 -19 -2 -25 0 -7 3 -2 5
12 5 14 0 19 -2 13 -5z m537 -18 c0 -11 -11 -15 -47 -14 l-48 1 38 8 c20 4 40
10 44 13 10 10 13 8 13 -8z m1117 -7 c-3 -8 -6 -5 -6 6 -1 11 2 17 5 13 3 -3
4 -12 1 -19z m-1047 -2 c0 -23 -13 -25 -34 -5 -19 19 -19 19 7 19 17 0 27 -5
27 -14z m-1503 -58 c-2 -13 -4 -3 -4 22 0 25 2 35 4 23 2 -13 2 -33 0 -45z
m189 -1 c4 -12 15 -34 25 -48 10 -14 21 -38 25 -53 6 -25 4 -27 -13 -22 -14 4
-23 1 -27 -9 -3 -8 -15 -15 -26 -15 -16 0 -20 7 -20 33 0 17 -7 54 -15 81 -19
61 -19 70 0 62 8 -3 15 0 15 6 0 17 28 -11 36 -35z m2409 4 c19 -37 24 -93 8
-98 -6 -2 -14 10 -18 26 -4 17 -11 33 -16 36 -12 8 -12 65 1 65 5 0 16 -13 25
-29z m-2012 -114 c5 -106 5 -108 -14 -91 -15 14 -21 14 -34 4 -12 -10 -15 -10
-15 1 0 11 -26 14 -132 12 -148 -2 -148 -2 -2 53 73 27 94 48 94 94 0 26 27
26 35 0 3 -11 13 -20 21 -20 8 0 14 -4 14 -10 0 -5 5 -10 10 -10 6 0 10 19 10
42 0 79 8 32 13 -75z m974 107 c-3 -3 -12 -4 -19 -1 -8 3 -5 6 6 6 11 1 17 -2
13 -5z m193 -13 c0 -13 -109 -21 -133 -10 -21 9 -20 9 3 5 14 -3 32 -1 40 4
19 12 90 13 90 1z m-1775 -66 c30 3 33 0 53 -46 17 -40 18 -49 6 -49 -9 0 -12
5 -8 12 5 7 3 8 -7 3 -16 -11 -47 -11 -72 0 -9 4 -23 2 -31 -4 -11 -9 -22 -6
-49 11 -20 13 -36 26 -37 30 0 4 15 17 33 29 17 13 39 32 47 44 14 20 15 20
24 -6 8 -22 14 -26 41 -24z m1540 35 c3 -5 1 -10 -4 -10 -6 0 -11 5 -11 10 0
6 2 10 4 10 3 0 8 -4 11 -10z m975 -9 c0 -5 -6 -11 -12 -14 -19 -6 -49 4 -42
14 7 12 54 12 54 0z m-750 -10 c0 -6 -5 -13 -10 -16 -8 -5 -7 -12 2 -23 11
-15 11 -15 -3 -4 -10 7 -15 21 -12 32 5 20 23 28 23 11z m675 -33 c7 -8 1 -9
-25 -4 -19 3 -39 11 -45 18 -7 8 -1 9 25 4 19 -3 39 -11 45 -18z m-2630 -17
c2 -5 -6 -11 -20 -13 -15 -3 -25 -1 -25 6 0 14 37 19 45 7z m1925 -21 c0 -5
-5 -10 -11 -10 -5 0 -7 5 -4 10 3 6 8 10 11 10 2 0 4 -4 4 -10z m64 -6 c9 -23
0 -30 -18 -15 -8 7 -20 10 -25 6 -7 -3 -8 0 -5 9 8 21 40 20 48 0z m106 -2 c0
-9 -59 -32 -81 -31 -8 0 6 8 31 19 25 10 46 18 48 19 1 1 2 -3 2 -7z m760 -11
c0 -5 -8 -18 -17 -29 -19 -21 -103 -40 -103 -23 0 6 19 11 43 13 32 2 44 8 52
26 10 22 25 30 25 13z m-2930 -22 c9 -6 11 -12 4 -15 -6 -2 -9 -17 -6 -33 5
-33 -5 -42 -35 -35 -27 7 -38 81 -13 88 26 7 35 6 50 -5z m2360 -3 c0 -3 -4
-8 -10 -11 -5 -3 -10 -1 -10 4 0 6 5 11 10 11 6 0 10 -2 10 -4z m-2090 -36 c7
-14 7 -20 0 -20 -5 0 -10 6 -10 14 0 8 -6 17 -12 19 -10 4 -10 6 -1 6 7 1 17
-8 23 -19z m215 0 c-3 -5 -12 -10 -18 -10 -7 0 -6 4 3 10 19 12 23 12 15 0z
m988 3 c-7 -2 -21 -2 -30 0 -10 3 -4 5 12 5 17 0 24 -2 18 -5z m54 1 c-3 -3
-12 -4 -19 -1 -8 3 -5 6 6 6 11 1 17 -2 13 -5z m1273 -4 c0 -5 -5 -10 -11 -10
-5 0 -7 5 -4 10 3 6 8 10 11 10 2 0 4 -4 4 -10z m-1743 -6 c-3 -3 -12 -4 -19
-1 -8 3 -5 6 6 6 11 1 17 -2 13 -5z m239 -11 c0 -10 -10 -21 -20 -26 -18 -7
-18 -8 -1 -21 16 -11 13 -14 -28 -26 -26 -7 -45 -16 -42 -20 3 -4 -17 -11 -43
-15 -56 -8 -81 -20 -105 -49 l-18 -21 3 25 c4 32 82 77 151 86 34 5 51 13 59
28 10 20 38 56 43 56 2 0 2 -8 1 -17z m-1081 -8 c-16 -8 -39 -14 -50 -14 -11
0 -2 6 20 14 52 17 68 17 30 0z m2055 5 c0 -5 -2 -10 -4 -10 -3 0 -8 5 -11 10
-3 6 -1 10 4 10 6 0 11 -4 11 -10z m-2131 -4 c-2 -2 -29 -6 -59 -9 -36 -4 -48
-3 -35 3 19 8 103 14 94 6z m311 -6 c0 -5 -4 -10 -10 -10 -5 0 -10 5 -10 10 0
6 5 10 10 10 6 0 10 -4 10 -10z m585 0 c3 -5 -1 -10 -9 -10 -9 0 -16 5 -16 10
0 6 4 10 9 10 6 0 13 -4 16 -10z m1765 6 c0 -11 -19 -15 -25 -6 -3 5 1 10 9
10 9 0 16 -2 16 -4z m-110 -26 c18 -12 2 -12 -25 0 -13 6 -15 9 -5 9 8 0 22
-4 30 -9z m-2285 -10 c-3 -5 -14 -10 -23 -10 -15 0 -15 2 -2 10 20 13 33 13
25 0z m2365 3 c-8 -3 -23 -10 -32 -15 -13 -6 -18 -5 -18 7 0 10 10 15 33 14
17 0 25 -3 17 -6z m-1830 -13 c0 -5 -5 -10 -11 -10 -5 0 -7 5 -4 10 3 6 8 10
11 10 2 0 4 -4 4 -10z m-816 -25 c-5 -19 -2 -25 10 -25 9 0 13 6 10 14 -4 10
6 18 33 25 48 14 66 14 58 1 -3 -5 -15 -10 -26 -10 -10 0 -19 -4 -19 -10 0 -5
-8 -10 -17 -11 -14 0 -15 -2 -3 -6 8 -3 19 -12 23 -19 9 -16 37 -19 37 -4 0 6
5 10 10 10 6 0 5 -8 -2 -20 -7 -11 -21 -19 -30 -18 -30 5 -23 -17 8 -23 24 -5
26 -7 12 -13 -25 -11 -23 -35 2 -29 11 3 20 9 20 14 0 5 7 9 16 9 13 0 13 -2
2 -13 -19 -20 -59 -40 -65 -33 -3 3 -12 -1 -20 -9 -10 -10 -27 -13 -58 -8 -31
4 -45 2 -45 -6 0 -6 -10 -11 -21 -11 -16 0 -19 3 -12 13 12 14 5 97 -8 97 -5
0 -9 18 -9 40 0 37 2 40 27 40 29 0 22 15 -12 23 -11 3 4 5 33 6 51 1 52 0 46
-24z m2591 -5 c-3 -5 -11 -10 -16 -10 -6 0 -7 5 -4 10 3 6 11 10 16 10 6 0 7
-4 4 -10z m-2204 -18 c-24 -44 -94 -83 -148 -80 l-38 1 38 4 c37 4 52 22 20
24 -17 1 -17 2 0 6 9 2 17 9 17 14 0 5 7 9 15 9 8 0 12 6 9 14 -4 11 5 16 38
19 23 2 47 4 51 5 4 1 3 -6 -2 -16z m1724 -22 c3 -5 1 -10 -4 -10 -6 0 -11 5
-11 10 0 6 2 10 4 10 3 0 8 -4 11 -10z m-1655 -34 c0 -3 -4 -8 -10 -11 -5 -3
-10 -1 -10 4 0 6 5 11 10 11 6 0 10 -2 10 -4z m330 -22 c0 -8 -4 -12 -10 -9
-5 3 -10 10 -10 16 0 5 5 9 10 9 6 0 10 -7 10 -16z m120 -16 c0 -5 -7 -8 -14
-5 -11 4 -13 1 -9 -11 6 -15 5 -15 -10 -3 -22 17 -22 29 1 34 21 4 32 -1 32
-15z m-500 -3 c-7 -8 -17 -15 -22 -15 -6 0 -5 7 2 15 7 8 17 15 22 15 6 0 5
-7 -2 -15z m1924 -11 c9 -24 7 -27 -9 -10 -17 17 -19 26 -6 26 5 0 12 -7 15
-16z m-1473 -11 c12 -15 12 -16 -3 -10 -13 4 -18 1 -18 -10 0 -9 -12 -36 -26
-60 -14 -24 -29 -62 -33 -86 l-9 -42 -1 51 c-1 38 3 53 14 58 17 6 21 36 5 36
-14 0 -60 -49 -60 -64 0 -6 -5 -4 -10 4 -7 11 -10 7 -11 -20 -2 -31 -2 -32 -6
-7 -3 16 1 35 8 43 6 8 8 18 4 22 -4 4 -10 1 -12 -5 -6 -18 -40 -16 -46 1 -6
16 16 40 26 29 4 -3 7 -1 7 5 0 7 7 12 15 12 13 0 17 6 14 26 -1 8 22 24 34
24 4 0 7 -7 7 -15 0 -21 37 -19 58 4 22 24 26 25 43 4z m1754 -25 l45 -32 0
-188 0 -189 -27 16 c-63 37 -59 25 -66 233 -3 105 -4 192 -2 192 3 0 25 -14
50 -32z m-2245 12 c0 -5 -10 -10 -22 -10 -19 0 -20 2 -8 10 19 13 30 13 30 0z
m2020 -49 c0 -12 -6 -9 -20 9 -26 33 -26 48 0 25 11 -10 20 -25 20 -34z
m-1257 2 c-7 -2 -19 -2 -25 0 -7 3 -2 5 12 5 14 0 19 -2 13 -5z m80 -20 c-7
-2 -21 -2 -30 0 -10 3 -4 5 12 5 17 0 24 -2 18 -5z m-1312 -161 l43 -132 -38
-35 c-43 -39 -65 -43 -90 -16 -16 18 -13 51 5 51 5 0 9 5 9 10 0 6 -7 10 -15
10 -18 0 -18 5 -5 31 15 28 24 186 10 194 -7 4 -7 12 1 27 17 32 32 8 80 -140z
m2499 142 c0 -8 -4 -12 -10 -9 -5 3 -10 10 -10 16 0 5 5 9 10 9 6 0 10 -7 10
-16z m-889 -12 c-7 -2 -18 1 -23 6 -8 8 -4 9 13 5 13 -4 18 -8 10 -11z m-279
-11 c24 -10 61 -24 83 -31 22 -6 59 -20 82 -31 24 -10 53 -19 65 -19 13 0 37
-9 54 -19 17 -10 51 -22 75 -26 35 -6 40 -9 24 -15 -24 -9 -53 -40 -37 -40 15
0 39 -63 25 -67 -8 -3 -5 -11 6 -22 17 -17 27 -93 35 -268 1 -32 3 -33 42 -33
23 0 55 -5 72 -11 28 -10 30 -13 17 -26 -8 -8 -18 -12 -22 -10 -5 3 -18 1 -31
-4 -22 -8 -23 -10 -6 -26 16 -16 15 -18 -5 -27 -11 -5 -21 -17 -21 -28 0 -20
-38 -26 -57 -7 -7 7 -20 4 -44 -10 -19 -12 -41 -21 -51 -21 -9 0 -18 -6 -21
-12 -3 -8 -16 0 -36 21 -28 31 -31 33 -31 13 0 -12 5 -22 10 -22 6 0 15 -11
20 -25 13 -35 65 -31 102 7 30 32 40 34 63 12 15 -15 14 -17 -4 -30 -11 -8
-33 -16 -51 -17 -17 -2 -36 -9 -42 -15 -13 -13 -79 -17 -77 -4 1 4 1 17 0 30
-1 27 -21 30 -21 2 0 -11 -7 -20 -15 -20 -16 0 -19 -9 -10 -32 4 -9 20 -12 55
-10 30 3 50 0 50 -6 0 -10 -8 -11 -69 -12 -13 0 -30 -5 -37 -11 -35 -29 0 192
37 237 5 6 6 13 4 16 -3 3 9 8 27 12 32 7 31 8 -42 35 -131 49 -247 108 -228
116 11 4 24 1 34 -10 18 -17 55 -17 61 1 2 7 -6 10 -23 6 -19 -3 -25 -1 -20 7
5 7 -3 11 -23 11 -17 0 -31 5 -31 10 0 6 -4 10 -10 10 -5 0 -7 -6 -4 -14 10
-25 -12 -25 -61 0 -92 46 -114 97 -90 202 9 36 14 66 12 68 -5 5 -57 -172 -57
-194 0 -23 32 -53 85 -80 70 -36 29 -24 -50 15 -64 32 -75 41 -75 63 0 14 4
30 8 35 5 6 14 30 22 55 43 148 70 212 98 232 11 7 24 23 31 36 15 27 46 28
103 3z m388 -15 c8 -4 -1 -4 -20 -1 -19 3 -39 10 -44 15 -10 10 19 3 64 -14z
m-756 8 c25 -9 19 -24 -9 -24 -24 0 -32 10 -18 23 8 8 8 8 27 1z m-312 -45
c15 -8 19 -8 14 0 -4 6 -3 11 3 11 5 0 17 3 25 6 13 5 15 2 10 -12 -6 -16 -3
-15 18 4 18 16 28 20 33 12 5 -8 11 -8 21 1 27 22 16 -40 -12 -68 -21 -21 -28
-23 -35 -12 -10 15 -12 8 -4 -13 4 -9 26 -12 83 -11 59 2 71 0 53 -7 -13 -6
-38 -8 -56 -4 -24 4 -35 2 -41 -9 -5 -8 -18 -16 -29 -18 -11 -2 -24 -14 -30
-27 -5 -12 -16 -20 -22 -17 -7 2 -13 -1 -13 -7 0 -6 -11 -26 -26 -45 -20 -26
-29 -31 -43 -24 -26 14 -101 94 -94 101 3 3 8 -1 10 -7 6 -18 30 -16 37 2 5
15 36 21 36 8 0 -11 51 -33 61 -27 5 3 9 10 9 15 0 6 -4 7 -10 4 -5 -3 -10 1
-10 9 0 9 -3 16 -7 16 -5 0 -23 14 -41 30 l-33 30 32 47 c18 26 34 42 37 35 2
-7 13 -17 24 -23z m921 4 c-7 -2 -19 -2 -25 0 -7 3 -2 5 12 5 14 0 19 -2 13
-5z m797 -7 c0 -14 -29 -31 -38 -21 -6 6 18 35 29 35 5 0 9 -6 9 -14z m100
-29 c26 -13 49 -36 50 -51 0 -5 -8 -2 -18 7 -10 9 -36 19 -58 23 -24 3 -45 14
-53 26 -12 19 -10 20 21 13 18 -3 44 -12 58 -18z m-1465 -57 c-4 -6 -21 -8
-41 -4 -20 4 -40 2 -48 -5 -10 -9 -15 -8 -20 4 -4 12 5 15 55 15 39 0 58 -4
54 -10z m1072 -12 c-3 -8 -6 -5 -6 6 -1 11 2 17 5 13 3 -3 4 -12 1 -19z m461
-9 c34 -13 26 -29 -16 -29 -37 0 -82 22 -82 41 0 10 56 3 98 -12z m-1575 -6
c-7 -2 -21 -2 -30 0 -10 3 -4 5 12 5 17 0 24 -2 18 -5z m60 0 c-7 -2 -19 -2
-25 0 -7 3 -2 5 12 5 14 0 19 -2 13 -5z m67 -53 c0 -5 -5 -10 -11 -10 -5 0 -7
5 -4 10 3 6 8 10 11 10 2 0 4 -4 4 -10z m1529 -30 l10 -30 -62 0 c-46 1 -68 6
-84 19 -13 11 -23 22 -23 25 0 3 28 7 63 9 34 2 67 4 74 5 6 1 16 -11 22 -28z
m-1756 -14 c-4 -19 -19 -29 -76 -50 -39 -14 -73 -24 -75 -21 -3 3 0 16 7 29
10 18 25 26 57 31 24 3 44 10 44 15 0 5 10 11 23 13 12 2 23 5 23 6 1 0 -1
-10 -3 -23z m-823 -36 c-13 -8 -13 -10 1 -10 9 0 20 -7 23 -16 10 -25 2 -27
-25 -5 -20 16 -22 21 -10 35 8 9 16 14 20 11 3 -3 -1 -10 -9 -15z m2243 -17
c-7 -2 -19 -2 -25 0 -7 3 -2 5 12 5 14 0 19 -2 13 -5z m-2278 -23 c3 -6 -1 -7
-9 -4 -18 7 -21 14 -7 14 6 0 13 -4 16 -10z m480 -30 c26 -29 15 -32 -15 -4
-13 13 -20 24 -14 24 6 0 19 -9 29 -20z m362 4 c-3 -3 -12 -4 -19 -1 -8 3 -5
6 6 6 11 1 17 -2 13 -5z m-87 -171 c-12 -25 -23 -43 -26 -41 -2 3 5 25 16 49
11 24 20 62 22 84 l1 40 4 -44 c3 -30 -2 -57 -17 -88z m60 102 c0 -8 -4 -15
-10 -15 -5 0 -10 7 -10 15 0 8 5 15 10 15 6 0 10 -7 10 -15z m83 -10 c-3 -8
-9 -15 -14 -15 -5 0 -9 -11 -9 -25 0 -14 -4 -25 -10 -25 -5 0 -10 -13 -10 -30
0 -16 -4 -30 -10 -30 -5 0 -10 6 -10 13 0 22 53 137 61 131 4 -2 6 -11 2 -19z
m-62 -28 c-10 -9 -11 -8 -5 6 3 10 9 15 12 12 3 -3 0 -11 -7 -18z m-236 -25
c-8 -9 -35 20 -28 31 4 6 11 3 19 -8 8 -10 12 -21 9 -23z m660 28 c3 -5 2 -10
-4 -10 -5 0 -13 5 -16 10 -3 6 -2 10 4 10 5 0 13 -4 16 -10z m937 -22 c-6 -6
-15 -8 -19 -4 -4 4 -1 11 7 16 19 12 27 3 12 -12z m-1869 -63 c34 -24 72 -53
85 -65 33 -31 38 -19 7 18 -23 27 -35 69 -17 59 4 -3 16 -1 27 3 46 17 105
-45 105 -109 0 -42 -15 -47 -51 -17 -17 15 -35 24 -40 21 -8 -6 -204 128 -216
147 -8 14 29 -7 100 -57z m650 45 c3 -12 0 -20 -8 -20 -8 0 -11 8 -8 20 3 11
7 20 8 20 1 0 5 -9 8 -20z m120 -7 c13 -4 17 -13 15 -32 -3 -25 -1 -26 55 -29
31 -2 57 -7 57 -12 0 -6 -4 -10 -10 -10 -5 0 -19 -9 -31 -21 -11 -11 -27 -18
-35 -15 -8 3 -13 2 -10 -2 7 -12 -18 -39 -39 -43 -15 -3 -22 -18 -32 -64 -7
-33 -12 -64 -13 -68 0 -5 26 -7 59 -5 l59 3 0 -39 c1 -21 -6 -49 -15 -62 -13
-21 -23 -24 -79 -24 -54 0 -64 -3 -64 -17 0 -10 -7 -36 -15 -58 -8 -22 -14
-50 -15 -63 0 -22 3 -23 62 -20 l61 3 13 40 c6 22 12 33 13 24 1 -9 -5 -35
-13 -57 -10 -28 -11 -43 -4 -50 8 -8 6 -24 -6 -57 -17 -42 -20 -45 -54 -45
-24 0 -55 11 -85 30 -43 28 -46 32 -36 52 9 16 9 23 1 26 -8 2 -7 10 3 26 8
12 35 101 60 197 26 95 50 188 55 204 31 104 33 119 22 123 -7 2 -12 11 -12
19 0 9 6 13 15 9 24 -9 17 11 -12 35 -20 16 -22 20 -8 14 11 -4 28 -10 38 -12z
m283 -8 c16 -8 24 -15 18 -15 -7 0 -25 7 -40 15 -16 8 -24 15 -18 15 7 0 25
-7 40 -15z m-466 -15 c0 -5 -9 -10 -20 -10 -11 0 -20 5 -20 10 0 6 9 10 20 10
11 0 20 -4 20 -10z m-350 -10 c0 -5 -2 -10 -4 -10 -3 0 -8 5 -11 10 -3 6 -1
10 4 10 6 0 11 -4 11 -10z m750 0 c0 -5 -4 -10 -10 -10 -5 0 -10 5 -10 10 0 6
5 10 10 10 6 0 10 -4 10 -10z m-310 -15 c0 -2 -9 -3 -19 -2 -11 0 -18 5 -15 9
4 6 34 0 34 -7z m466 0 c16 -8 24 -15 18 -15 -7 0 -25 7 -40 15 -16 8 -24 15
-18 15 7 0 25 -7 40 -15z m-662 -46 c-29 -30 -40 -37 -28 -17 5 8 2 9 -9 5
-23 -9 -21 9 3 26 11 8 17 16 15 19 -3 3 6 3 20 0 l26 -5 -27 -28z m117 -7
c-29 -29 -81 -51 -81 -34 0 16 55 60 80 64 35 5 35 4 1 -30z m469 28 c0 -5 -5
-10 -11 -10 -5 0 -7 5 -4 10 3 6 8 10 11 10 2 0 4 -4 4 -10z m-336 -12 c-11
-18 -45 -42 -71 -50 -30 -8 -29 0 4 34 27 28 82 41 67 16z m479 5 c-7 -2 -19
-2 -25 0 -7 3 -2 5 12 5 14 0 19 -2 13 -5z m-53 -33 c0 -5 -7 -10 -16 -10 -8
0 -12 5 -9 10 3 6 10 10 16 10 5 0 9 -4 9 -10z m1507 4 c-3 -3 -12 -4 -19 -1
-8 3 -5 6 6 6 11 1 17 -2 13 -5z m46 -1 c-7 -2 -19 -2 -25 0 -7 3 -2 5 12 5
14 0 19 -2 13 -5z m100 0 c-13 -2 -33 -2 -45 0 -13 2 -3 4 22 4 25 0 35 -2 23
-4z m-402 -66 c14 -11 17 -40 21 -190 2 -97 2 -177 -1 -177 -8 0 -76 44 -83
54 -4 6 -8 89 -8 184 l0 173 28 -16 c15 -9 34 -22 43 -28z m591 -90 c2 -73 2
-185 0 -249 l-3 -118 -244 0 -244 0 -1 250 0 251 244 -1 245 -1 3 -132z
m-3312 63 c0 -22 -7 -25 -29 -11 -16 10 -6 31 15 31 8 0 14 -9 14 -20z m1795
-10 c3 -6 -4 -10 -17 -10 -18 0 -20 2 -8 10 19 12 18 12 25 0z m-1715 -10 c13
-8 13 -10 -2 -10 -12 0 -16 -5 -11 -17 3 -10 3 -15 -2 -11 -4 4 -14 3 -22 -3
-16 -14 -18 3 -3 32 12 21 18 23 40 9z m1835 0 c3 -5 -1 -10 -9 -10 -9 0 -15
-3 -15 -7 1 -5 1 -15 0 -22 -1 -12 -4 -12 -13 -3 -17 17 -28 15 -28 -5 0 -12
-8 -18 -22 -19 -13 0 -31 -4 -40 -8 -13 -6 -18 -4 -18 8 0 11 9 16 28 16 22 0
32 7 41 27 10 22 14 24 22 12 7 -12 9 -11 9 4 0 18 34 24 45 7z m370 -42 c14
-29 39 -75 55 -103 16 -27 28 -55 25 -62 -2 -6 3 -17 11 -23 8 -7 14 -18 14
-25 0 -7 9 -34 21 -59 30 -69 24 -76 -67 -76 l-76 0 7 -27 c8 -33 24 -53 22
-27 -2 19 27 31 76 33 28 1 87 -45 87 -68 0 -6 11 -16 24 -22 24 -11 64 -94
52 -106 -3 -4 -6 -2 -6 3 0 6 -9 20 -20 32 -11 12 -19 27 -18 34 2 9 -22 13
-89 14 -54 1 -93 -2 -93 -7 0 -5 9 -27 20 -49 11 -22 20 -44 20 -50 0 -6 9
-29 19 -50 19 -39 19 -39 0 -29 -14 7 -19 6 -19 -3 0 -36 -26 30 -98 247 -44
132 -91 276 -105 320 -14 44 -28 89 -32 100 -3 11 1 7 11 -10 9 -16 20 -32 24
-35 4 -3 10 -18 14 -33 8 -35 33 -45 50 -22 13 18 56 14 56 -6 0 -5 7 -9 15
-9 17 0 18 4 6 28 -18 33 -48 142 -39 142 4 0 20 -24 33 -52z m-2156 13 c12
-7 12 -14 0 -39 -13 -31 -14 -31 -32 -12 -14 16 -15 24 -7 40 12 22 18 24 39
11z m-159 -12 c0 -6 -7 -9 -15 -6 -19 8 -31 -13 -14 -24 11 -7 11 -9 -2 -9
-18 0 -33 26 -23 41 8 13 54 11 54 -2z m58 -43 c5 -25 -12 -39 -37 -31 -14 4
-21 15 -21 31 0 22 4 25 27 22 18 -2 29 -10 31 -22z m167 14 c3 -5 1 -10 -5
-10 -6 0 -8 -4 -5 -10 3 -5 -1 -10 -9 -10 -10 0 -13 -6 -9 -17 5 -17 5 -17
-12 -2 -14 14 -15 21 -6 38 12 22 36 28 46 11z m41 -35 c7 -27 20 -33 26 -13
3 8 7 8 11 2 7 -12 -19 -54 -34 -54 -5 0 -9 11 -9 25 0 26 -15 34 -23 13 -2
-7 -7 -10 -11 -7 -8 8 14 59 25 59 5 0 11 -11 15 -25z m2007 8 c-13 -2 -33 -2
-45 0 -13 2 -3 4 22 4 25 0 35 -2 23 -4z m-2173 -17 c0 -9 7 -12 20 -9 24 6
26 -6 5 -33 -13 -18 -14 -18 -15 -1 0 10 -4 15 -10 12 -5 -3 -10 -1 -10 5 0 7
-7 10 -15 6 -18 -7 -20 5 -3 22 16 16 28 15 28 -2z m1680 4 c21 -7 19 -8 -17
-9 -24 -1 -43 4 -43 9 0 12 24 12 60 0z m-1427 -34 c22 -17 22 -22 -5 -29 -18
-5 -19 -8 -8 -21 14 -18 7 -20 -21 -6 -25 14 -24 26 3 33 18 5 19 8 8 21 -15
19 -2 20 23 2z m-165 -19 c3 -13 -3 -17 -28 -17 -28 0 -30 2 -20 21 13 24 43
22 48 -4z m24 -34 c-5 -28 -5 -28 17 -9 22 20 25 18 15 -8 -7 -18 -39 -22 -49
-6 -8 12 3 50 14 50 5 0 6 -12 3 -27z m177 -7 c-11 -24 -29 -36 -29 -18 0 12
31 54 36 49 3 -2 -1 -16 -7 -31z m56 4 c3 -5 1 -10 -5 -10 -6 0 -8 -4 -5 -10
3 -5 2 -10 -4 -10 -6 0 -8 -7 -5 -15 7 -18 -7 -20 -23 -4 -8 8 -8 18 -1 35 12
25 32 31 43 14z m-160 -6 c14 -6 14 -8 -1 -25 -22 -24 -38 -24 -25 0 6 10 7
21 4 25 -8 8 1 8 22 0z m3092 -16 c-3 -8 -6 -5 -6 6 -1 11 2 17 5 13 3 -3 4
-12 1 -19z m-2872 -18 c15 -16 15 -22 5 -35 -30 -36 -81 -5 -54 33 19 27 26
27 49 2z m-175 3 c-1 -5 -7 -19 -14 -32 -15 -27 -31 -13 -21 19 6 19 35 29 35
13z m51 -29 c8 -10 9 -18 2 -22 -5 -4 -12 -12 -14 -19 -3 -9 -9 -8 -22 2 -15
11 -16 17 -7 34 13 25 23 26 41 5z m-332 -38 c-31 -45 -37 -39 -7 7 12 20 25
34 27 32 2 -3 -7 -20 -20 -39z m96 4 c29 0 37 10 24 27 -14 16 -8 16 26 1 34
-15 32 -38 -2 -38 -19 -1 -41 -14 -67 -39 -23 -24 -52 -42 -73 -46 -18 -3 -31
-10 -28 -14 6 -11 -24 -23 -37 -15 -7 4 -3 11 9 18 27 15 97 95 90 103 -4 3
-1 15 5 27 l11 21 10 -23 c6 -13 19 -22 32 -22z m454 6 c9 -11 9 -19 -1 -35
-14 -22 -28 -28 -28 -11 0 6 -7 10 -15 10 -18 0 -19 4 -3 30 15 24 31 25 47 6z
m-141 -18 c17 -17 15 -48 -2 -48 -35 0 -45 11 -34 36 13 27 19 29 36 12z
m-184 -11 c18 -13 17 -15 -13 -36 -17 -13 -38 -20 -46 -17 -13 5 -20 -5 -16
-26 0 -5 -8 -8 -19 -8 -11 0 -20 -4 -20 -10 0 -6 27 -10 60 -10 33 0 60 -4 60
-9 0 -5 18 -11 40 -13 45 -4 48 3 26 57 -17 39 -8 45 19 15 10 -11 24 -20 31
-20 7 0 16 -5 20 -12 5 -8 2 -9 -9 -5 -13 5 -17 1 -17 -17 0 -20 9 -27 54 -41
65 -20 95 -16 51 8 -16 9 -23 16 -15 16 8 0 23 -6 33 -13 23 -18 12 -46 -18
-46 -13 0 -25 -6 -28 -14 -4 -10 4 -13 33 -12 22 0 34 4 27 8 -8 5 -5 10 10
14 13 4 20 10 17 15 -10 17 7 9 64 -28 31 -21 70 -45 86 -53 21 -11 25 -16 13
-18 -15 -3 -15 -6 0 -30 10 -15 20 -29 23 -32 10 -10 10 -30 0 -30 -5 0 -10 6
-10 14 0 7 -14 28 -31 46 -25 25 -33 29 -40 19 -5 -8 -9 -11 -9 -6 0 4 1 9 3
10 8 12 -30 38 -50 34 -24 -4 -32 8 -10 16 6 3 2 6 -10 6 -13 1 -23 6 -23 13
0 7 -6 6 -17 -4 -20 -16 -70 -18 -92 -4 -11 7 -13 5 -8 -7 3 -10 2 -17 -3 -17
-6 0 -10 7 -10 16 0 17 -23 44 -39 44 -6 0 -19 10 -30 21 -17 18 -31 21 -98
21 -59 0 -69 2 -43 8 35 7 34 7 -12 9 -29 1 -48 -4 -51 -11 -3 -10 -13 -10
-50 0 -26 6 -56 12 -67 12 -11 0 -20 5 -20 10 0 6 7 10 16 10 8 0 22 7 30 15
9 8 33 15 54 15 31 0 44 6 69 35 17 20 31 40 31 45 0 14 33 12 54 -3z m479 6
c-7 -2 -19 -2 -25 0 -7 3 -2 5 12 5 14 0 19 -2 13 -5z m156 5 c-2 -2 -20 -18
-40 -36 -32 -29 -37 -31 -54 -18 -19 14 -19 15 5 35 14 11 40 20 59 21 19 0
32 -1 30 -2z m-244 -20 c3 -7 1 -26 -4 -43 -7 -25 -10 -27 -16 -12 -4 9 -16
17 -26 17 -25 0 -24 8 4 31 26 22 36 23 42 7z m-147 -17 c11 -7 12 -12 1 -29
-10 -16 -16 -18 -30 -9 -13 8 -15 15 -8 29 11 20 18 22 37 9z m223 -27 c11
-13 9 -14 -14 -9 -29 8 -37 -11 -15 -33 7 -7 8 -12 2 -12 -28 0 -46 53 -21 63
22 10 34 7 48 -9z m-181 -1 c-1 -14 -27 -43 -33 -37 -7 7 14 44 25 44 5 0 8
-3 8 -7z m29 -43 c4 0 12 5 19 12 9 9 12 9 12 0 0 -14 -37 -35 -49 -28 -5 3
-6 18 -2 33 5 25 6 26 9 6 2 -13 7 -23 11 -23z m202 13 c12 -15 12 -16 -3 -10
-12 4 -15 2 -11 -9 3 -7 0 -14 -7 -14 -6 0 -8 -4 -5 -10 3 -5 1 -10 -5 -10
-17 0 -23 26 -10 49 13 25 23 26 41 4z m-491 -1 c0 -4 -18 -6 -40 -4 -22 2
-40 6 -40 8 0 2 18 4 40 4 22 0 40 -3 40 -8z m155 -22 c3 -5 -1 -10 -9 -10 -9
0 -16 5 -16 10 0 6 4 10 9 10 6 0 13 -4 16 -10z m200 0 c3 -5 1 -10 -5 -10 -6
0 -8 -4 -5 -10 3 -5 1 -10 -5 -10 -6 0 -8 -4 -5 -10 3 -6 -1 -7 -9 -4 -19 7
-19 9 -6 35 12 21 25 25 35 9z m2345 -12 c0 -7 3 -73 7 -145 l6 -133 -82 0
-81 0 0 145 0 145 75 0 c53 0 75 -4 75 -12z m178 -135 l3 -143 -80 0 -81 0 0
145 0 146 78 -3 77 -3 3 -142z m170 0 l3 -143 -81 0 -80 0 0 145 0 146 78 -3
77 -3 3 -142z m-2510 125 c-2 -6 -10 -14 -16 -16 -7 -2 -10 2 -6 12 7 18 28
22 22 4z m-144 -13 c3 -8 12 -12 21 -9 18 7 19 -5 1 -28 -17 -23 -22 -23 -29
2 -4 14 -10 18 -22 14 -15 -6 -16 -4 -6 14 14 26 27 28 35 7z m-624 1 c0 -3
-4 -8 -10 -11 -5 -3 -10 -1 -10 4 0 6 5 11 10 11 6 0 10 -2 10 -4z m820 -22
c0 -8 7 -14 15 -14 8 0 15 -4 15 -9 0 -5 12 -11 27 -13 23 -3 24 -5 11 -16
-13 -10 -19 -10 -31 3 -9 8 -18 15 -22 15 -3 0 -11 5 -18 10 -7 6 -21 18 -32
26 -11 9 -15 13 -8 10 6 -4 14 -2 18 4 8 13 25 3 25 -16z m-80 -35 c0 -6 -9
-8 -20 -4 -22 7 -26 -5 -9 -22 7 -7 7 -13 1 -17 -14 -8 -35 21 -28 39 6 17 56
21 56 4z m320 -20 c0 -4 -7 -6 -15 -3 -8 4 -15 10 -15 15 0 4 7 6 15 3 8 -4
15 -10 15 -15z m-740 -3 c0 -8 7 -17 16 -20 30 -12 8 -16 -24 -5 -20 7 -29 15
-25 25 7 18 33 18 33 0z m461 -13 c23 6 24 -2 4 -29 -13 -18 -14 -18 -15 -1 0
14 -5 17 -20 12 -23 -7 -25 -2 -8 28 11 20 12 20 16 4 3 -13 10 -17 23 -14z
m173 -25 c-7 -11 -34 3 -34 18 0 12 4 12 19 2 11 -7 18 -15 15 -20z m-558 -3
c-3 -9 0 -15 8 -15 8 0 16 -6 19 -14 4 -11 -4 -9 -29 6 -19 11 -34 22 -34 25
0 2 4 2 9 -2 5 -3 12 -1 16 5 10 15 18 12 11 -5z m450 -17 c-3 -13 -6 -26 -6
-30 0 -8 -50 15 -50 24 0 9 32 27 49 28 9 0 11 -7 7 -22z m145 8 c5 3 9 0 9
-6 0 -15 -23 -7 -26 8 -1 7 0 8 3 2 2 -5 9 -8 14 -4z m42 -21 c4 -8 2 -17 -3
-20 -6 -4 -10 -4 -10 -1 0 2 -3 11 -6 20 -3 9 -2 16 4 16 5 0 12 -7 15 -15z
m1684 -52 c-2 -16 -4 -5 -4 22 0 28 2 40 4 28 2 -13 2 -35 0 -50z m-1803 42
c20 -21 9 -45 -20 -45 -26 0 -40 20 -30 45 7 19 30 19 50 0z m-199 -5 c3 -5 1
-10 -4 -10 -6 0 -11 5 -11 10 0 6 2 10 4 10 3 0 8 -4 11 -10z m1804 -17 c0
-25 -1 -26 -9 -8 -12 27 -12 35 0 35 6 0 10 -12 9 -27z m-1553 -25 c-3 -24
-30 -36 -41 -19 -3 7 0 8 9 5 11 -4 13 0 9 15 -4 15 -1 21 11 21 11 0 15 -7
12 -22z m32 -28 c-17 -26 -32 -26 -18 0 6 11 15 20 20 20 6 0 5 -9 -2 -20z
m-152 -5 c10 -8 14 -15 8 -15 -5 0 -19 7 -30 15 -10 8 -14 15 -8 15 5 0 19 -7
30 -15z m1569 -15 c3 -5 1 -10 -4 -10 -6 0 -11 5 -11 10 0 6 2 10 4 10 3 0 8
-4 11 -10z"/>
<path d="M3171 3354 c0 -11 3 -14 6 -6 3 7 2 16 -1 19 -3 4 -6 -2 -5 -13z"/>
<path d="M3212 3325 c0 -16 2 -22 5 -12 2 9 2 23 0 30 -3 6 -5 -1 -5 -18z"/>
<path d="M3208 3233 c-2 -5 -1 -24 3 -43 l6 -35 2 43 c1 39 -3 52 -11 35z"/>
<path d="M1324 3415 c-11 -27 2 -37 14 -11 7 16 8 26 1 26 -5 0 -12 -7 -15
-15z"/>
<path d="M263 3373 c-23 -9 -13 -22 20 -25 26 -2 31 -7 29 -23 -2 -11 -8 -21
-13 -23 -13 -5 -11 -42 3 -42 6 0 8 -3 5 -6 -4 -4 -13 -1 -22 6 -13 10 -15 9
-15 -8 0 -11 6 -22 12 -24 10 -4 8 -9 -3 -21 -9 -9 -19 -13 -23 -10 -3 4 -6
-1 -6 -10 0 -17 27 -23 45 -9 15 10 35 49 35 67 0 8 5 15 10 15 6 0 10 13 10
29 0 17 5 33 10 36 6 3 10 15 10 26 0 19 6 20 66 17 56 -2 68 -6 74 -23 13
-36 1 -45 -58 -45 -55 0 -66 -13 -14 -16 15 -1 33 -2 40 -3 8 -1 11 -10 7 -26
-3 -14 -7 -37 -10 -51 -4 -17 -11 -24 -20 -20 -11 4 -15 -3 -15 -30 0 -21 -4
-33 -10 -29 -6 4 -10 -12 -10 -42 0 -35 -3 -44 -10 -33 -7 11 -10 5 -10 -22 0
-31 4 -38 20 -38 11 0 20 7 20 16 0 8 5 12 10 9 6 -4 10 7 10 24 0 17 5 31 10
31 6 0 10 16 10 35 0 19 5 35 10 35 6 0 10 8 10 19 0 10 7 24 15 31 8 7 15 23
15 36 0 13 5 24 10 24 6 0 10 9 10 20 0 14 -5 18 -17 13 -16 -6 -16 -4 1 13
11 10 22 18 25 17 13 -5 20 51 8 59 -13 8 -284 10 -304 1z m197 -273 c0 -5 -2
-10 -4 -10 -3 0 -8 5 -11 10 -3 6 -1 10 4 10 6 0 11 -4 11 -10z"/>
<path d="M650 3353 c-53 -17 -60 -26 -60 -75 0 -44 2 -48 24 -48 13 0 33 -3
43 -6 15 -6 16 -4 6 7 -19 19 -17 99 2 99 8 0 15 5 15 10 0 6 27 10 60 10 l60
0 0 -32 c0 -25 -3 -29 -10 -18 -7 11 -10 5 -10 -23 0 -21 -4 -36 -8 -33 -4 2
-14 1 -21 -3 -9 -6 -4 -10 15 -15 18 -5 30 -3 32 3 2 6 12 11 23 11 14 0 19 7
19 30 0 17 4 30 9 30 19 0 22 35 5 47 -17 13 -171 17 -204 6z m-43 -55 c-3 -8
-6 -5 -6 6 -1 11 2 17 5 13 3 -3 4 -12 1 -19z"/>
<path d="M927 3346 c-14 -10 -15 -15 -5 -19 10 -4 10 -6 1 -6 -7 -1 -13 -9
-14 -18 0 -15 -2 -15 -9 2 -7 16 -9 12 -9 -18 -1 -21 -8 -45 -16 -54 -8 -8
-13 -19 -10 -24 8 -12 35 -12 35 1 0 6 33 11 78 11 42 1 64 4 47 6 -62 7 -75
13 -75 33 0 18 7 20 59 20 33 0 66 -3 75 -6 18 -7 22 -25 5 -21 -6 1 -14 -4
-16 -10 -7 -19 35 -16 55 4 13 12 14 17 4 21 -9 3 -5 14 14 39 14 19 23 37 20
40 -3 3 -54 7 -113 9 -82 3 -112 1 -126 -10z m173 -25 c0 -14 -45 -32 -70 -27
-14 2 -33 5 -42 5 -11 1 -18 9 -18 20 0 17 8 20 48 23 47 3 82 -6 82 -21z"/>
<path d="M1243 3353 c-13 -2 -23 -11 -23 -19 0 -8 -4 -12 -10 -9 -6 4 -10 -7
-10 -27 0 -25 -3 -29 -10 -18 -7 11 -10 7 -10 -17 0 -28 4 -33 23 -33 12 0 57
-3 100 -6 76 -6 77 -6 77 17 0 17 -3 20 -9 11 -5 -9 -28 -12 -69 -11 -70 3
-97 13 -62 24 18 6 20 9 9 16 -10 6 -11 11 -3 17 6 4 14 16 18 28 6 18 13 20
64 18 31 -2 62 -3 68 -4 6 0 14 -18 18 -41 7 -43 28 -50 34 -11 2 12 8 22 13
22 16 0 10 37 -7 44 -17 7 -176 6 -211 -1z"/>
<path d="M410 3330 c0 -5 5 -10 10 -10 6 0 10 5 10 10 0 6 -4 10 -10 10 -5 0
-10 -4 -10 -10z"/>
<path d="M1391 3273 c-1 -18 4 -33 9 -33 12 0 12 17 0 45 -7 17 -9 15 -9 -12z"/>
<path d="M1306 3275 c-3 -8 -1 -15 4 -15 6 0 10 7 10 15 0 8 -2 15 -4 15 -2 0
-6 -7 -10 -15z"/>
<path d="M571 3254 c0 -11 3 -14 6 -6 3 7 2 16 -1 19 -3 4 -6 -2 -5 -13z"/>
<path d="M978 3183 c7 -3 16 -2 19 1 4 3 -2 6 -13 5 -11 0 -14 -3 -6 -6z"/>
<path d="M557 3168 c-9 -6 -9 -8 1 -8 8 0 12 -16 12 -47 0 -35 -3 -44 -10 -33
-7 11 -10 4 -10 -27 0 -24 -4 -43 -10 -43 -5 0 -10 -13 -10 -30 0 -16 -4 -30
-10 -30 -5 0 -10 -13 -10 -30 0 -16 -4 -30 -10 -30 -5 0 -10 -4 -10 -10 0 -15
29 -12 46 4 8 8 14 24 14 35 0 12 5 21 10 21 6 0 10 7 10 15 0 8 5 15 10 15 6
0 10 15 10 33 0 23 3 28 9 18 7 -11 10 -4 13 25 l3 39 73 3 c61 2 72 0 72 -13
0 -9 -4 -13 -10 -10 -6 4 -10 -12 -10 -39 0 -33 4 -46 14 -46 8 0 17 6 19 13
4 9 8 8 16 -3 8 -12 11 -5 11 28 0 26 4 41 10 37 6 -3 10 0 10 9 0 8 -5 16
-12 18 -8 3 -3 14 15 32 31 31 33 39 12 56 -16 13 -257 11 -278 -2z m225 -3
c2 -3 3 -18 0 -34 l-4 -29 -74 0 c-67 0 -74 2 -74 20 0 10 5 16 10 13 6 -3 10
3 10 14 0 19 6 21 63 21 35 0 66 -2 69 -5z"/>
<path d="M1200 3153 c0 -22 -2 -25 -10 -13 -7 11 -10 5 -10 -23 0 -23 -4 -36
-10 -32 -6 3 -10 -5 -10 -19 0 -14 4 -27 8 -30 16 -10 143 -15 137 -5 -4 5
-23 9 -44 9 -30 0 -40 4 -44 20 -3 11 1 27 9 34 8 8 14 24 14 36 0 12 5 18 10
15 14 -9 13 8 -2 23 -22 22 -48 14 -48 -15z"/>
<path d="M1388 3155 c5 -27 22 -35 22 -10 0 18 12 19 28 3 7 -7 12 -8 12 -2 0
17 -23 34 -46 34 -17 0 -20 -5 -16 -25z"/>
<path d="M898 3144 c-22 -12 -28 -22 -28 -50 0 -23 -5 -34 -14 -34 -10 0 -14
-10 -14 -30 2 -46 35 -40 56 10 l17 40 65 1 c36 1 49 4 30 6 -66 7 -80 13 -80
34 0 18 5 20 72 17 74 -3 91 -14 63 -41 -10 -11 -13 -25 -9 -42 9 -36 39 -32
54 8 7 17 17 42 23 54 6 13 8 25 5 28 -2 3 -51 7 -109 9 -78 3 -111 0 -131
-10z"/>
<path d="M1371 3123 c-1 -24 -5 -43 -11 -43 -15 0 -12 -29 4 -46 10 -10 35
-14 83 -13 37 1 57 3 43 6 -86 13 -88 13 -92 37 -4 18 0 26 16 30 22 6 14 21
-12 21 -9 0 -19 11 -23 25 -6 20 -7 17 -8 -17z"/>
<path d="M1490 3123 c0 -28 -3 -34 -10 -23 -8 13 -10 12 -10 -2 0 -10 6 -19
13 -20 6 0 17 -2 22 -3 6 -2 19 -3 31 -4 17 -1 21 -7 20 -33 -1 -20 -6 -32
-13 -31 -7 2 -10 -4 -7 -11 3 -8 12 -12 20 -9 8 3 14 0 14 -6 0 -6 5 -11 10
-11 6 0 10 9 10 20 0 11 -4 20 -10 20 -5 0 -10 4 -10 9 0 5 9 7 20 4 16 -4 20
0 20 21 0 23 4 26 33 26 51 0 77 11 77 31 0 17 11 24 33 20 4 0 7 4 7 9 0 6
-10 10 -22 11 -22 1 -22 1 2 9 23 7 23 8 -9 9 -25 1 -32 -2 -28 -14 4 -8 2
-17 -3 -20 -4 -3 -11 1 -13 7 -3 7 -6 -2 -6 -21 -1 -28 -4 -33 -21 -28 -12 3
-34 2 -50 -3 -18 -5 -32 -5 -35 1 -4 5 -19 9 -36 9 -22 0 -29 5 -29 19 0 25
27 35 33 13 4 -13 5 -12 6 4 1 21 -16 34 -45 34 -10 0 -14 -12 -14 -37z"/>
<path d="M1231 3074 c0 -11 3 -14 6 -6 3 7 2 16 -1 19 -3 4 -6 -2 -5 -13z"/>
<path d="M485 3020 c-3 -5 -1 -10 4 -10 6 0 11 5 11 10 0 6 -2 10 -4 10 -3 0
-8 -4 -11 -10z"/>
<path d="M820 2996 c0 -9 5 -16 10 -16 6 0 10 4 10 9 0 6 -4 13 -10 16 -5 3
-10 -1 -10 -9z"/>
<path d="M1320 2968 c-12 -22 -12 -22 6 -6 10 10 15 20 12 24 -4 3 -12 -5 -18
-18z"/>
<path d="M560 2870 c0 -5 5 -10 11 -10 5 0 7 5 4 10 -3 6 -8 10 -11 10 -2 0
-4 -4 -4 -10z"/>
<path d="M1595 2720 c-3 -5 -1 -10 4 -10 6 0 11 5 11 10 0 6 -2 10 -4 10 -3 0
-8 -4 -11 -10z"/>
<path d="M1345 2130 c-3 -5 1 -10 9 -10 9 0 16 5 16 10 0 6 -4 10 -9 10 -6 0
-13 -4 -16 -10z"/>
<path d="M2560 2074 c0 -21 34 -34 92 -34 l53 0 -30 19 c-39 24 -115 35 -115
15z"/>
<path d="M2745 2060 c3 -5 8 -10 11 -10 2 0 4 5 4 10 0 6 -5 10 -11 10 -5 0
-7 -4 -4 -10z"/>
<path d="M1514 2028 c-8 -12 -4 -15 21 -20 12 -2 20 3 20 11 0 16 -32 24 -41
9z"/>
<path d="M2280 1880 c-9 -6 -10 -10 -3 -10 6 0 15 5 18 10 8 12 4 12 -15 0z"/>
<path d="M2170 1859 c0 -5 5 -7 10 -4 6 3 10 8 10 11 0 2 -4 4 -10 4 -5 0 -10
-5 -10 -11z"/>
<path d="M2240 1840 c-13 -8 -12 -10 3 -10 9 0 17 5 17 10 0 12 -1 12 -20 0z"/>
<path d="M1470 1820 c0 -5 4 -10 9 -10 5 0 12 -10 16 -22 6 -20 8 -20 12 -6 2
10 -2 25 -11 33 -17 17 -26 19 -26 5z"/>
<path d="M2100 1800 c0 -5 -7 -10 -15 -10 -8 0 -15 -4 -15 -10 0 -5 11 -10 25
-10 16 0 25 6 25 16 0 8 5 12 10 9 6 -4 8 -10 5 -15 -10 -16 23 -32 42 -21 17
10 16 10 -3 11 -13 0 -24 8 -27 20 -5 20 -47 29 -47 10z"/>
<path d="M1770 1790 c0 -5 14 -10 31 -10 17 0 28 4 24 10 -3 6 -17 10 -31 10
-13 0 -24 -4 -24 -10z"/>
<path d="M2238 1773 c7 -3 16 -2 19 1 4 3 -2 6 -13 5 -11 0 -14 -3 -6 -6z"/>
<path d="M2200 1740 c8 -5 29 -10 45 -10 23 0 27 3 15 10 -8 5 -28 10 -45 10
-23 0 -27 -3 -15 -10z"/>
<path d="M2190 1700 c0 -5 5 -10 11 -10 5 0 7 5 4 10 -3 6 -8 10 -11 10 -2 0
-4 -4 -4 -10z"/>
<path d="M1548 1693 c7 -3 16 -2 19 1 4 3 -2 6 -13 5 -11 0 -14 -3 -6 -6z"/>
<path d="M2329 1628 c7 -10 17 -18 22 -18 5 0 9 8 8 18 0 11 -2 12 -6 4 -4
-10 -8 -10 -21 0 -15 12 -16 11 -3 -4z"/>
<path d="M2425 1620 c-3 -5 -1 -10 4 -10 6 0 11 5 11 10 0 6 -2 10 -4 10 -3 0
-8 -4 -11 -10z"/>
<path d="M2256 1594 c-22 -12 -26 -18 -15 -25 9 -5 17 -3 22 6 4 8 14 15 22
15 8 0 17 5 20 10 9 15 -16 11 -49 -6z"/>
<path d="M2185 1550 c-3 -5 -1 -10 4 -10 6 0 11 5 11 10 0 6 -2 10 -4 10 -3 0
-8 -4 -11 -10z"/>
<path d="M170 1528 c0 -10 5 -18 10 -18 6 0 10 -9 10 -20 0 -20 0 -20 20 0 12
12 18 26 14 31 -4 8 -9 7 -15 -2 -7 -11 -11 -10 -23 6 -14 18 -15 18 -16 3z"/>
<path d="M2350 1531 c0 -6 5 -13 10 -16 6 -3 10 1 10 9 0 9 -4 16 -10 16 -5 0
-10 -4 -10 -9z"/>
<path d="M2101 1496 c-9 -11 -6 -15 14 -18 14 -3 28 -1 31 3 3 5 -5 9 -18 9
-18 0 -20 2 -8 10 8 5 10 10 4 10 -6 0 -17 -6 -23 -14z"/>
<path d="M2192 1490 c0 -14 2 -19 5 -12 2 6 2 18 0 25 -3 6 -5 1 -5 -13z"/>
<path d="M2400 1474 c0 -14 3 -14 15 -4 8 7 15 14 15 16 0 2 -7 4 -15 4 -8 0
-15 -7 -15 -16z"/>
<path d="M2150 1390 c0 -11 7 -20 15 -20 8 0 15 9 15 20 0 11 -7 20 -15 20 -8
0 -15 -9 -15 -20z"/>
<path d="M334 1304 c3 -9 6 -21 6 -27 0 -7 5 -4 11 6 11 18 5 37 -13 37 -5 0
-7 -7 -4 -16z"/>
<path d="M2581 827 c2 -42 7 -77 11 -77 9 0 0 140 -9 150 -2 2 -3 -30 -2 -73z"/>
<path d="M321 1664 c0 -11 3 -14 6 -6 3 7 2 16 -1 19 -3 4 -6 -2 -5 -13z"/>
<path d="M230 1660 c0 -13 11 -13 30 0 12 8 11 10 -7 10 -13 0 -23 -4 -23 -10z"/>
<path d="M590 1751 c0 -5 -9 -13 -20 -16 -11 -3 -20 -11 -20 -16 0 -17 27 -9
50 16 19 21 21 25 7 25 -9 0 -17 -4 -17 -9z"/>
<path d="M1430 1473 c0 -13 5 -23 10 -23 13 0 13 11 0 30 -8 12 -10 11 -10 -7z"/>
<path d="M1535 1470 c3 -5 14 -10 23 -10 15 0 15 2 2 10 -20 13 -33 13 -25 0z"/>
<path d="M1337 1433 c-3 -15 -8 -37 -12 -48 -3 -11 3 -3 15 19 14 24 18 42 12
48 -6 6 -11 -1 -15 -19z"/>
<path d="M1410 1425 c0 -8 4 -15 10 -15 5 0 7 7 4 15 -4 8 -8 15 -10 15 -2 0
-4 -7 -4 -15z"/>
<path d="M1640 1411 c0 -6 -16 -11 -37 -11 -20 0 -34 -2 -31 -5 2 -3 48 -2
102 2 102 6 113 18 21 22 -33 1 -55 -2 -55 -8z"/>
<path d="M1453 1393 c9 -2 23 -2 30 0 6 3 -1 5 -18 5 -16 0 -22 -2 -12 -5z"/>
<path d="M1506 1385 c4 -8 10 -15 15 -15 5 0 9 7 9 15 0 8 -7 15 -15 15 -9 0
-12 -6 -9 -15z"/>
<path d="M1372 1370 c0 -14 2 -19 5 -12 2 6 2 18 0 25 -3 6 -5 1 -5 -13z"/>
<path d="M1730 1350 c0 -5 14 -10 31 -10 17 0 28 4 24 10 -3 6 -17 10 -31 10
-13 0 -24 -4 -24 -10z"/>
<path d="M1592 1321 c7 -9 14 -18 15 -20 2 -2 3 5 3 16 0 11 -7 20 -15 20 -12
0 -12 -3 -3 -16z"/>
<path d="M1656 1331 c5 -5 23 -11 39 -13 17 -3 24 -3 18 -1 -7 3 -13 9 -13 14
0 5 -12 9 -27 9 -16 0 -23 -4 -17 -9z"/>
<path d="M1372 1310 c0 -14 2 -19 5 -12 2 6 2 18 0 25 -3 6 -5 1 -5 -13z"/>
<path d="M1430 1313 c0 -8 -4 -12 -8 -9 -4 2 -13 -4 -20 -15 -17 -26 6 -26 35
0 11 10 29 21 39 23 13 3 9 6 -13 9 -24 4 -33 2 -33 -8z"/>
<path d="M1493 1293 c9 -2 23 -2 30 0 6 3 -1 5 -18 5 -16 0 -22 -2 -12 -5z"/>
<path d="M1780 1290 c0 -5 9 -10 21 -10 11 0 17 5 14 10 -3 6 -13 10 -21 10
-8 0 -14 -4 -14 -10z"/>
<path d="M1602 1265 c0 -16 2 -22 5 -12 2 9 2 23 0 30 -3 6 -5 -1 -5 -18z"/>
<path d="M1522 1261 c-11 -6 -10 -10 3 -15 14 -5 15 -9 5 -21 -16 -19 -5 -34
20 -28 22 6 25 24 10 54 -12 21 -18 23 -38 10z"/>
<path d="M1768 1228 c18 -18 15 -26 -10 -30 -19 -2 -23 -9 -23 -37 0 -29 4
-36 27 -42 33 -9 54 11 63 63 6 30 4 38 -13 47 -29 16 -60 15 -44 -1z"/>
<path d="M1370 1154 c0 -8 5 -12 10 -9 6 4 8 11 5 16 -9 14 -15 11 -15 -7z"/>
<path d="M1413 1134 c-8 -22 4 -29 21 -11 14 13 14 16 0 21 -8 3 -17 -1 -21
-10z"/>
<path d="M1658 993 c7 -3 16 -2 19 1 4 3 -2 6 -13 5 -11 0 -14 -3 -6 -6z"/>
<path d="M1788 943 c7 -3 16 -2 19 1 4 3 -2 6 -13 5 -11 0 -14 -3 -6 -6z"/>
<path d="M760 1461 c0 -11 -5 -21 -12 -23 -7 -3 2 -19 25 -41 36 -37 57 -46
57 -27 0 6 7 10 15 10 8 0 15 5 15 10 0 13 -23 13 -37 -1 -9 -9 -19 -4 -39 17
-18 17 -24 29 -16 32 14 4 16 42 2 42 -5 0 -10 -9 -10 -19z"/>
<path d="M868 1443 c6 -2 18 -2 25 0 6 3 1 5 -13 5 -14 0 -19 -2 -12 -5z"/>
<path d="M800 1430 c0 -5 5 -10 10 -10 6 0 10 5 10 10 0 6 -4 10 -10 10 -5 0
-10 -4 -10 -10z"/>
<path d="M1234 633 c11 -11 46 -14 46 -3 0 6 -12 10 -27 10 -14 0 -23 -3 -19
-7z"/>
<path d="M1140 396 c0 -8 51 -13 56 -5 3 5 -9 9 -25 9 -17 0 -31 -2 -31 -4z"/>
<path d="M1170 332 c0 -4 9 -8 20 -9 11 -1 20 2 20 8 0 5 -9 9 -20 9 -11 0
-20 -4 -20 -8z"/>
<path d="M3075 770 c-3 -5 -1 -10 4 -10 6 0 11 5 11 10 0 6 -2 10 -4 10 -3 0
-8 -4 -11 -10z"/>
<path d="M3190 770 c0 -5 5 -10 11 -10 5 0 7 5 4 10 -3 6 -8 10 -11 10 -2 0
-4 -4 -4 -10z"/>
<path d="M2380 555 c0 -14 5 -29 35 -102 l18 -43 74 0 c40 0 73 3 73 8 -1 20
-33 97 -52 123 -20 27 -27 29 -85 29 -48 0 -63 -3 -63 -15z"/>
<path d="M2517 328 c-7 -4 4 -8 25 -8 20 0 40 5 43 10 7 12 -49 10 -68 -2z"/>
<path d="M156 702 c-3 -6 -1 -14 5 -17 15 -10 25 3 12 16 -7 7 -13 7 -17 1z"/>
<path d="M615 529 c-10 -15 3 -25 16 -12 7 7 7 13 1 17 -6 3 -14 1 -17 -5z"/>
<path d="M580 446 c0 -9 5 -16 10 -16 6 0 10 4 10 9 0 6 -4 13 -10 16 -5 3
-10 -1 -10 -9z"/>
<path d="M558 283 c6 -2 18 -2 25 0 6 3 1 5 -13 5 -14 0 -19 -2 -12 -5z"/>
<path d="M820 190 c0 -5 5 -10 10 -10 6 0 10 5 10 10 0 6 -4 10 -10 10 -5 0
-10 -4 -10 -10z"/>
<path d="M3065 248 c-5 -23 -9 -27 -12 -15 -9 34 -23 16 -23 -28 0 -25 5 -45
10 -45 6 0 10 11 10 25 0 14 5 25 10 25 6 0 10 -11 10 -25 0 -33 16 -32 24 1
8 29 -2 94 -14 94 -4 0 -11 -15 -15 -32z"/>
<path d="M3212 280 c-31 -13 -46 -55 -30 -88 16 -33 76 -43 102 -17 25 25 20
70 -10 94 -30 23 -30 23 -62 11z m39 -64 c-13 -26 -17 -29 -19 -14 -2 11 2 26
8 34 22 25 28 15 11 -20z"/>
<path d="M3368 257 c-25 -38 -29 -57 -13 -63 8 -4 15 -15 15 -26 0 -27 16 -14
29 22 7 23 7 29 -1 24 -8 -5 -9 2 -5 24 8 39 -6 49 -25 19z"/>
<path d="M3425 228 c4 -76 4 -78 15 -78 6 0 10 9 10 20 0 11 5 20 10 20 15 0
12 37 -5 54 -8 8 -15 19 -15 25 0 6 -4 11 -8 11 -5 0 -8 -24 -7 -52z"/>
<path d="M1092 141 c4 -13 18 -16 19 -4 0 4 -5 9 -11 12 -7 2 -11 -2 -8 -8z"/>
</g>
</svg>
